<svg version="1.2" xmlns="http://www.w3.org/2000/svg" viewBox="0 0 1552 336" width="1552" height="336">
	<title>Certara_Logo_Light_footer</title>
	<style>
		.s0 { fill: #faf7f7 } 
	</style>
	<path class="s0" d="m105.7 277.2c-34.7 0-58.7-29.4-58.7-64.1 0-34.7 24-64.2 58.6-64.2 34.7 0 37.3 9.3 53.2 23.7l28.3-28.6c-20.8-22.3-43.9-36.1-82.9-36.1-59.5 0-103.7 47.1-103.7 105.2 0 58.1 44.2 105.2 103.7 105.2 59.5 0 62.1-13.9 82.9-36.2l-28.2-28.6c-15.9 14.4-30.1 23.7-53.2 23.7z"/>
	<path class="s0" d="m256.9 233.9h95.4v-39.6h-95.4v-41.1h108.4v-39.6h-152.6v202.4h154v-39.6h-109.8z"/>
	<path class="s0" d="m570.2 180.9v-0.5c0-19.1-6-35-17.3-46.3-13.3-13.3-33.3-20.5-59-20.5h-92.5v202.5h44.6v-64.8h34.9l43.4 64.8h52l-49.4-72.3c25.7-9.5 43.3-30.1 43.3-62.8zm-45 2.4c0 17-12.4 28.6-34.1 28.6h-45.1v-58.1h44.2c21.7 0 35 9.8 35 28.9v0.6z"/>
	<path class="s0" d="m1131.7 180.9v-0.5c0-19.1-6.1-35-17.3-46.3-13.3-13.3-33.3-20.5-59-20.5h-92.5v202.5h44.5v-64.8h35l43.3 64.8h52.1l-49.4-72.3c25.7-9.5 43.4-30.1 43.4-62.8zm-45.2 2.4c0 17-12.4 28.6-34.1 28.6h-45.1v-58.1h44.2c21.7 0 35 9.8 35 28.9v0.6z"/>
	<path class="s0" d="m693 154.6h62v-40.9h-168.4v40.9h61.9v161.5h44.8l-0.3-56.9z"/>
	<path class="s0" d="m1212.9 112.1l-68.4 162.8 28.2 41.2 18.6-45.4h85.5l24.4 63h45.4l-92.6-221.6h-41.1zm-5.7 119.2l26.9-65.6 26.8 65.6z"/>
	<path class="s0" d="m1379.3 298.4c-10.1 0-18.3 8.2-18.3 18.3 0 10.1 8.2 18.3 18.3 18.3 10.2 0 18.3-8.2 18.3-18.3 0-10.1-8.1-18.3-18.3-18.3zm0 33.2c-8.1 0-14.6-6.6-14.6-14.9 0-8.2 6.5-14.9 14.6-14.9 8.1 0 14.7 6.7 14.7 14.9 0 8.3-6.6 14.9-14.7 14.9z"/>
	<path class="s0" d="m1388.5 312.7c0-4-2.7-6.5-6.9-6.5h-9.7v20.1h3.8v-7h4.9l3.6 7.1h4.4l-4.3-7.5c2.5-0.9 4.2-3.3 4.2-6.1zm-6.9 3.1h-5.9v-6.2h5.9c1.9 0 3.1 0.9 3.1 3.1 0 2.3-1.5 3.1-3.1 3.1z"/>
	<path class="s0" d="m820.5 112.1l-86.8 204h45.4l18.5-45.4h85.6l18.5 45.4h46.5l-86.7-204zm-6.9 119.2l26.9-65.6 26.9 65.6z"/>
	<path class="s0" d="m1535.3 117.4c0-1.5 0-2.9 0-4.3h-36.1q0.2 2.1 0.2 4.2c0 36.8-29.3 66.6-65.3 66.6-36.1 0-71.2-31.3-73.2-70.8h-18.3c0-1.4-0.1-2.8-0.1-4.2 0-40.3 23.1-75.2 56.5-92l-6.7-16.3c-12.2 5.9-23.4 13.9-33.2 23.9-22.2 22.6-34.4 52.7-34.4 84.6 0 32 11.3 57.2 31.8 78.1 20.7 21.1 48.2 32.7 77.6 32.7 55.8 0 101.2-46 101.2-102.5z"/>
	<path class="s0" d="m1520.5 39.9c-20.5-20.9-47.7-32.3-76.7-32.3-54.2 0-98.5 43.9-100 98.5q0 0.2 0 0.5c0 0.8 0 1.6 0 2.4q0 1.5 0 2.9h33.5c0-0.9 0-1.9 0-2.9 0-37.4 29.8-67.8 66.5-67.8 36.7 0 71.8 31.2 74.5 70.7h18.1v1.2c0.2 1.6 0.2 3 0.2 4.3 0 40.3-22.8 75.3-56.1 92.5l5.9 14.1c11.6-5.8 22.2-13.5 31.5-23 22-22.4 34.1-52.1 34.1-83.7 0-29.2-11.2-56.7-31.5-77.4z"/>
</svg>