<svg version="1.2" xmlns="http://www.w3.org/2000/svg" viewBox="0 0 1548 1522" width="1548" height="1522">
	<title>CERT_BIG</title>
	<style>
		.s0 { fill: #212b3b } 
	</style>
	<path class="s0" d="m1433.9 795.5c0-9.5 0-19 0-29.2h-245.7q1.3 14.9 1.3 28.6c0 251.2-199.4 454.1-444.5 454.1-245.7 0-484.6-213.8-498.2-482.7h-124.6c0-9.6-0.7-19.1-0.7-28.6 0-274.4 157.3-512.7 385.3-627l-46.3-110.3c-83 39.4-159.3 94.6-226 162-151.1 154.5-234.1 359.5-234.1 576.6 0 217.9 76.9 390.1 216.4 532.4 140.9 143.7 328.8 222.6 528.2 222.6 379.9 0 688.9-313.8 688.9-698.5z"/>
	<path class="s0" d="m1333.2 267.9c-139.6-142.3-324.7-220.6-522.1-220.6-369 0-670.5 299.6-680.7 671.3q0 1.4 0 3.4 0 8.2 0 16.4 0 10.2 0 20.4h228q0-10.2 0-20.4c0-254.7 202.9-462.3 452.7-462.3 249.8 0 488.7 213.1 507.1 482.7h123.2v7.5c1.4 11.5 1.4 20.4 1.4 29.2 0 275.1-155.2 513.4-381.9 630.5l40.2 96c78.9-39.5 151.1-92 214.4-155.9 149.7-153.2 232.1-356.1 232.1-571.2 0-198.8-76.2-386.1-214.4-527z"/>
</svg>