<?xml version="1.0" encoding="UTF-8"?>
<svg id="_레이어_1" xmlns="http://www.w3.org/2000/svg" version="1.1" viewBox="0 0 573 517">
  <!-- Generator: Adobe Illustrator 30.1.0, SVG Export Plug-In . SVG Version: 2.1.1 Build 136)  -->
  <defs>
    <style>
      .st0 {
        fill: #212b3b;
      }
    </style>
  </defs>
  <path class="st0" d="M47.43,488.5c-14.03,0-23.73-11.92-23.73-25.95s9.7-25.95,23.69-25.95,15.08,3.72,21.5,9.58l11.44-11.56c-8.41-9.01-17.74-14.63-33.51-14.63-24.05,0-41.92,19.04-41.92,42.56s17.87,42.56,41.92,42.56,25.1-5.62,33.51-14.63l-11.4-11.6c-6.43,5.86-12.17,9.62-21.5,9.62h0Z"/>
  <path class="st0" d="M108.54,470.95h38.56v-16.01h-38.56v-16.61h43.82v-16.05h-61.68v81.89h62.25v-16.01h-44.38v-17.22h-.01Z"/>
  <path class="st0" d="M235.18,449.53v-.2c0-7.72-2.43-14.19-6.99-18.71-5.38-5.42-13.46-8.33-23.85-8.33h-37.39v81.93h18.03v-26.23h14.11l17.54,26.23h21.02l-19.97-29.26c10.39-3.84,17.5-12.17,17.5-25.38v-.04h0ZM216.99,450.5c0,6.87-5.01,11.56-13.78,11.56h-18.23v-23.48h17.87c8.77,0,14.15,3.96,14.15,11.68v.24h0Z"/>
  <path class="st0" d="M462.14,449.53v-.2c0-7.72-2.47-14.19-6.99-18.71-5.38-5.42-13.46-8.33-23.85-8.33h-37.39v81.93h17.99v-26.23h14.15l17.54,26.23h21.02l-19.97-29.26c10.39-3.84,17.54-12.17,17.54-25.38l-.04-.04h0ZM443.87,450.5c0,6.87-5.01,11.56-13.78,11.56h-18.23v-23.48h17.87c8.77,0,14.15,3.96,14.15,11.68v.24h-.01Z"/>
  <path class="st0" d="M284.82,438.9h25.06v-16.57h-68.07v16.57h25.02v65.32h18.11l-.12-23.04v-42.28Z"/>
  <path class="st0" d="M494.96,421.72l-27.65,65.84,11.4,16.65,7.52-18.39h34.56l9.86,25.5h18.35l-37.43-89.61h-16.61ZM492.65,469.9l10.87-26.52,10.87,26.52h-21.75.01Z"/>
  <path class="st0" d="M562.22,497.07c-4.08,0-7.4,3.31-7.4,7.4s3.31,7.4,7.4,7.4,7.4-3.31,7.4-7.4-3.27-7.4-7.4-7.4ZM562.22,510.53c-3.23,0-5.9-2.71-5.9-6.02s2.67-6.06,5.9-6.06,5.94,2.71,5.94,6.06-2.67,6.02-5.94,6.02Z"/>
  <path class="st0" d="M565.94,502.89c0-1.66-1.09-2.67-2.79-2.67h-3.92v8.12h1.54v-2.83h1.98l1.5,2.87h1.74l-1.74-3.03c1.01-.36,1.7-1.33,1.7-2.47h-.01ZM563.15,504.14h-2.38v-2.51h2.38c.77,0,1.25.36,1.25,1.29s-.61,1.21-1.25,1.21h0Z"/>
  <path class="st0" d="M336.35,421.72l-35.08,82.5h18.35l7.48-18.39h34.6l7.48,18.39h18.8l-35.04-82.5h-16.59ZM333.56,469.9l10.87-26.52,10.87,26.52h-21.75.01Z"/>
  <path class="st0" d="M453.34,206.11v-7.34h-61.63c.23,2.5.34,4.89.34,7.17,0,62.99-50.02,113.87-111.48,113.87s-121.55-53.6-124.96-121.04h-31.24c0-2.39-.17-4.78-.17-7.17,0-68.8,39.44-128.55,96.62-157.23l-11.61-27.66c-20.83,9.9-39.95,23.73-56.68,40.63-37.9,38.75-58.73,90.14-58.73,144.6s19.29,97.82,54.29,133.5c35.34,36.02,82.46,55.82,132.47,55.82,95.26,0,172.76-78.7,172.76-175.15h.02Z"/>
  <path class="st0" d="M428.08,73.81c-35-35.68-81.43-55.31-130.94-55.31-92.53,0-168.15,75.11-170.72,168.33v10.07h57.19v-5.12c0-63.85,50.87-115.92,113.53-115.92s122.57,53.43,127.18,121.04h30.9v1.88c.34,2.9.34,5.12.34,7.34,0,68.97-38.92,128.72-95.77,158.08l10.07,24.07c19.8-9.9,37.9-23.05,53.78-39.09,37.56-38.41,58.21-89.28,58.21-143.23,0-49.85-19.12-96.8-53.78-132.13h0Z"/>
</svg>