<svg version="1.2" xmlns="http://www.w3.org/2000/svg" viewBox="0 0 1552 335" width="1552" height="335">
	<title>Certara_Logo_Header</title>
	<style>
		.s0 { fill: #212b3b } 
	</style>
	<path class="s0" d="m105.2 277c-34.7 0-58.7-29.5-58.7-64.2 0-34.7 24-64.2 58.6-64.2 34.7 0 37.3 9.2 53.2 23.7l28.3-28.6c-20.8-22.3-43.9-36.2-82.9-36.2-59.5 0-103.7 47.1-103.7 105.3 0 58.2 44.2 105.3 103.7 105.3 59.5 0 62.1-13.9 82.9-36.2l-28.2-28.7c-15.9 14.5-30.1 23.8-53.2 23.8z"/>
	<path class="s0" d="m256.4 233.6h95.4v-39.6h-95.4v-41.1h108.4v-39.7h-152.6v202.6h154v-39.6h-109.8z"/>
	<path class="s0" d="m569.7 180.6v-0.5c0-19.1-6-35.1-17.3-46.3-13.3-13.4-33.3-20.6-59-20.6h-92.5v202.7h44.6v-64.9h34.9l43.4 64.9h52l-49.4-72.4c25.7-9.5 43.3-30.1 43.3-62.8zm-45 2.4c0 17-12.4 28.6-34.1 28.6h-45.1v-58.1h44.2c21.7 0 35 9.8 35 28.9v0.6z"/>
	<path class="s0" d="m1131.2 180.6v-0.5c0-19.1-6.1-35.1-17.3-46.3-13.3-13.4-33.3-20.6-59-20.6h-92.5v202.7h44.5v-64.9h35l43.4 64.9h52l-49.4-72.4c25.7-9.5 43.4-30.1 43.4-62.8zm-45.2 2.4c0 17-12.4 28.6-34.1 28.6h-45.1v-58.1h44.2c21.7 0 35 9.8 35 28.9v0.6z"/>
	<path class="s0" d="m692.5 154.3h62v-41h-168.4v41h61.9v161.6h44.8l-0.3-57z"/>
	<path class="s0" d="m1212.4 111.8l-68.4 162.9 28.2 41.2 18.6-45.5h85.5l24.4 63.1h45.4l-92.6-221.7h-41.1zm-5.7 119.2l26.9-65.6 26.9 65.6z"/>
	<path class="s0" d="m1378.8 298.2c-10.1 0-18.3 8.2-18.3 18.3 0 10.1 8.2 18.3 18.3 18.3 10.2 0 18.3-8.2 18.3-18.3 0-10.1-8.1-18.3-18.3-18.3zm0 33.3c-8 0-14.6-6.7-14.6-14.9 0-8.3 6.6-15 14.6-15 8.1 0 14.7 6.7 14.7 15 0 8.2-6.6 14.9-14.7 14.9z"/>
	<path class="s0" d="m1388 312.6c0-4.1-2.7-6.6-6.9-6.6h-9.7v20.1h3.8v-7h4.9l3.7 7.1h4.3l-4.3-7.5c2.5-0.9 4.2-3.3 4.2-6.1zm-6.9 3.1h-5.9v-6.2h5.9c1.9 0 3.1 0.9 3.1 3.2 0 2.2-1.5 3-3.1 3z"/>
	<path class="s0" d="m820 111.8l-86.8 204.1h45.4l18.5-45.5h85.6l18.5 45.5h46.5l-86.7-204.1zm-6.9 119.2l26.9-65.6 26.9 65.6z"/>
	<path class="s0" d="m1534.8 117c0-1.4 0-2.8 0-4.3h-36.1q0.2 2.2 0.2 4.2c0 36.9-29.3 66.7-65.3 66.7-36.1 0-71.2-31.4-73.2-70.9h-18.3c0-1.4-0.1-2.8-0.1-4.2 0-40.3 23.1-75.3 56.6-92.1l-6.8-16.2c-12.2 5.8-23.4 13.9-33.2 23.8-22.2 22.7-34.4 52.8-34.4 84.7 0 32 11.3 57.3 31.8 78.2 20.7 21.1 48.3 32.7 77.6 32.7 55.8 0 101.2-46.1 101.2-102.6z"/>
	<path class="s0" d="m1520 39.5c-20.5-20.9-47.7-32.4-76.7-32.4-54.2 0-98.5 44-100 98.6q0 0.2 0 0.5c0 0.8 0 1.6 0 2.4q0 1.5 0 3h33.5c0-1 0-2 0-3 0-37.4 29.8-67.9 66.5-67.9 36.7 0 71.8 31.3 74.5 70.9h18.1v1.1c0.2 1.7 0.2 3 0.2 4.3 0 40.4-22.8 75.4-56.1 92.6l5.9 14.1c11.6-5.8 22.2-13.5 31.5-22.9 22-22.5 34.1-52.3 34.1-83.9 0-29.2-11.2-56.7-31.5-77.4z"/>
</svg>