<svg version="1.2" xmlns="http://www.w3.org/2000/svg" viewBox="0 0 1548 1521" width="1548" height="1521">
	<title>CERT_BIG</title>
	<style>
		.s0 { fill: #faf7f7 } 
	</style>
	<path class="s0" d="m1434.3 795.3c0-10.2 0-19.8 0-29.3h-245.7q1.4 14.3 1.4 28.6c0 250.5-199.5 453.4-444.5 453.4-245.8 0-484.7-213.1-498.3-482h-124.6c0-9.5-0.7-19.1-0.7-28.6 0-274.4 157.3-512 384.6-626.3l-45.6-111c-83 40.2-159.3 94.6-226 162.7-151.1 153.9-234.1 358.8-234.1 576 0 217.8 76.9 389.4 216.4 531.7 140.9 143.6 328.1 222.6 528.3 222.6 379.8 0 688.8-313.2 688.8-697.8z"/>
	<path class="s0" d="m1333.6 267.6c-139.6-142.2-324.7-219.9-522.1-219.9-369 0-670.5 298.9-680.7 670.6q0 1.4 0 3.4 0 8.2 0 16.4 0 10.2 0 19.7h228c0-6.1 0-12.9 0-19.7 0-254.6 202.9-461.6 452.7-461.6 249.8 0 488.7 212.4 507.1 481.3h123.2v8.2c1.4 10.9 1.4 20.4 1.4 29.3 0 274.3-155.2 512.6-381.9 629.7l40.2 96c78.9-39.5 151.1-91.9 214.4-156.6 149.7-152.5 232.1-354.7 232.1-569.8 0-198.8-76.2-386-214.4-527z"/>
</svg>